<svg class="img-fluid" id="outputsvg" xmlns="http://www.w3.org/2000/svg" style="transform: none; transform-origin: 50% 50%; cursor: move; max-height: 361.42px;" width="2314" height="1572" viewBox="0 0 23140 15720"><g id="l5O4cDtTha1CvNRaYp24lwd" fill="rgb(255,0,0)" style="transform: none;"><g style="transform: none;"><path id="pKNKuYVgD" d="M0 7860 l0 -7860 11570 0 11570 0 0 7860 0 7860 -11570 0 -11570 0 0 -7860z m15750 7520 c161 -34 246 -53 260 -60 8 -5 50 -24 92 -44 262 -119 466 -375 581 -726 62 -191 78 -261 113 -489 19 -127 18 -181 -7 -308 -55 -286 -163 -445 -534 -788 -77 -71 -199 -188 -271 -260 -106 -106 -138 -145 -165 -201 -32 -65 -34 -75 -34 -169 1 -92 3 -104 28 -142 65 -102 219 -150 337 -105 69 27 90 66 90 166 0 45 -6 113 -14 153 -7 40 -11 75 -8 78 10 10 821 5 827 -5 12 -20 35 -249 35 -356 0 -244 -59 -407 -199 -544 -102 -101 -201 -149 -397 -194 -343 -79 -728 -12 -1014 176 -72 48 -208 179 -256 248 -81 115 -147 264 -194 433 -74 266 -64 458 34 682 47 104 157 245 330 421 6 6 89 92 184 191 325 338 382 441 382 683 -1 201 -68 351 -184 413 -31 16 -59 22 -116 22 -88 0 -132 -20 -165 -75 -41 -71 -29 -361 25 -585 5 -22 10 -50 10 -62 l0 -23 -399 0 c-372 0 -400 1 -405 18 -5 18 -26 119 -51 242 -63 312 -62 628 1 767 8 17 14 34 14 38 0 3 18 37 40 75 52 88 122 159 207 207 120 69 182 88 373 117 58 9 116 18 130 20 42 8 262 -2 320 -14z m-4821 -97 c6 -38 25 -144 41 -238 16 -93 39 -219 50 -280 10 -60 31 -177 44 -260 14 -82 32 -184 40 -225 21 -106 43 -226 66 -365 11 -66 27 -156 35 -200 8 -44 18 -102 22 -130 l8 -50 420 -5 419 -5 8 -45 c5 -25 15 -79 22 -120 30 -151 96 -531 96 -547 0 -1 -184 -3 -410 -3 l-410 0 0 -42 c0 -47 9 -105 40 -278 12 -63 31 -171 43 -240 l22 -125 438 -3 438 -2 9 -23 c5 -12 14 -51 19 -87 6 -36 19 -114 30 -175 46 -256 71 -401 71 -422 l0 -23 -850 0 -850 0 -4 23 c-5 28 -19 106 -56 322 -17 94 -39 222 -50 285 -12 63 -34 192 -50 285 -17 94 -39 220 -50 280 -10 61 -31 178 -44 260 -14 83 -32 184 -40 225 -22 108 -34 174 -66 365 -17 94 -39 220 -49 280 -32 178 -62 346 -71 405 -5 30 -18 105 -29 165 -11 61 -32 178 -46 260 -14 83 -32 184 -40 225 -26 138 -45 244 -70 395 -14 83 -28 158 -31 168 -5 16 19 17 409 17 l414 0 12 -67z m1856 35 c3 -18 10 -44 15 -58 5 -14 36 -122 70 -240 34 -118 66 -227 72 -242 l10 -28 249 0 c197 0 249 3 249 13 0 28 -30 486 -35 535 l-5 52 400 0 c313 0 400 -3 400 -12 1 -40 21 -373 30 -483 6 -71 19 -278 30 -460 11 -181 27 -422 35 -535 26 -369 58 -851 80 -1200 8 -126 32 -495 50 -755 8 -115 17 -257 20 -315 3 -58 8 -126 11 -152 l6 -48 -666 0 c-366 0 -666 2 -666 4 0 2 -13 48 -29 102 -16 55 -46 155 -65 224 -43 147 -47 162 -127 435 -34 116 -74 255 -89 310 -16 55 -40 141 -55 190 -15 50 -42 144 -61 210 -18 66 -39 135 -45 154 -6 19 -24 80 -39 135 -16 56 -54 189 -85 296 -70 238 -75 258 -113 390 -17 58 -46 160 -66 227 -20 67 -43 148 -52 180 -21 76 -33 117 -87 303 -25 85 -61 211 -81 280 -35 122 -55 188 -82 280 -24 78 -64 224 -64 232 0 4 175 8 389 8 l389 0 7 -32z m5355 26 c0 -13 50 -311 64 -384 21 -107 41 -219 77 -425 17 -99 37 -214 45 -255 7 -41 27 -154 43 -250 17 -96 40 -224 50 -285 51 -283 62 -344 71 -400 5 -33 18 -109 30 -170 11 -60 34 -186 50 -280 16 -93 34 -197 40 -230 35 -187 52 -283 71 -400 11 -71 25 -138 30 -147 9 -16 32 -18 269 -18 l259 0 6 -32 c2 -18 19 -114 36 -213 17 -99 35 -202 39 -230 4 -27 15 -85 24 -127 9 -42 16 -84 16 -93 0 -13 -99 -15 -935 -15 -514 0 -935 1 -935 3 -1 1 -7 38 -16 82 -8 44 -28 157 -44 250 -16 94 -33 190 -38 215 -6 25 -13 71 -17 102 l-6 58 253 2 253 3 3 34 c2 18 -3 66 -12 105 -8 39 -27 139 -41 221 -13 83 -34 200 -44 260 -11 61 -32 178 -46 260 -14 83 -32 184 -40 225 -23 119 -34 183 -65 365 -16 94 -34 197 -40 230 -6 33 -17 96 -26 140 -8 44 -26 148 -40 230 -14 83 -35 200 -45 260 -11 61 -33 187 -49 280 -16 94 -36 206 -44 250 -28 151 -66 369 -66 377 0 5 185 8 410 8 226 0 410 -3 410 -6z m-10831 -95 c184 -29 286 -103 328 -235 16 -51 16 -58 -2 -132 -27 -117 -58 -191 -121 -288 -31 -49 -76 -118 -99 -154 -23 -36 -50 -78 -59 -95 -9 -16 -25 -43 -36 -60 -11 -16 -23 -36 -27 -44 -3 -8 -35 -61 -70 -118 -35 -57 -63 -105 -63 -107 0 -3 -31 -59 -70 -125 -38 -66 -70 -121 -70 -123 0 -3 -27 -53 -60 -112 -120 -216 -338 -641 -436 -851 -201 -429 -362 -888 -479 -1360 -40 -163 -48 -197 -75 -340 -70 -372 -99 -571 -116 -815 -8 -125 -17 -110 -33 55 -34 362 -40 665 -21 955 23 330 51 670 65 785 36 285 48 380 71 540 13 94 33 220 43 280 11 61 33 187 50 280 16 94 39 213 51 265 12 52 34 158 50 235 70 333 260 1037 359 1330 35 105 53 124 143 153 250 80 501 110 677 81z m1430 -670 c155 -43 253 -118 287 -221 14 -43 15 -59 5 -103 -6 -28 -21 -69 -33 -91 -12 -21 -26 -48 -32 -59 -54 -99 -75 -121 -536 -571 -347 -339 -570 -584 -840 -924 -243 -306 -511 -688 -694 -990 -31 -52 -61 -102 -66 -110 -90 -143 -251 -441 -416 -770 -51 -102 -93 -182 -93 -178 -1 8 30 136 57 233 11 39 29 106 41 150 21 80 34 125 98 330 46 147 132 405 143 430 5 11 16 38 24 60 63 180 79 221 87 230 5 5 9 15 9 23 0 7 8 32 18 55 10 23 27 62 37 87 21 51 45 108 69 162 9 20 16 39 16 42 0 3 20 49 45 102 25 52 45 97 45 99 0 13 203 425 283 575 175 329 434 761 587 980 17 25 72 104 121 175 106 155 160 220 200 240 44 23 156 57 219 66 84 12 234 2 319 -22z m518 -1528 c209 -54 368 -252 368 -456 0 -63 -4 -77 -35 -129 -20 -32 -55 -73 -82 -92 -64 -48 -183 -101 -243 -109 -27 -4 -72 -13 -100 -20 -27 -8 -79 -21 -115 -30 -140 -34 -389 -117 -495 -165 -401 -181 -670 -347 -990 -613 -189 -158 -465 -447 -655 -687 -45 -58 -85 -107 -87 -110 -7 -7 160 318 192 375 120 213 231 388 360 566 73 101 202 267 225 289 3 3 25 30 50 60 126 156 502 530 690 686 211 175 484 380 560 419 91 48 214 53 357 16z m7581 -2842 c372 -66 603 -223 785 -534 111 -190 204 -497 243 -800 18 -148 7 -271 -38 -408 -21 -65 -19 -62 -72 -168 -74 -149 -185 -272 -550 -609 -207 -192 -283 -277 -324 -360 -24 -49 -27 -66 -27 -161 0 -99 2 -108 28 -148 48 -72 132 -111 242 -111 83 0 129 20 162 69 19 28 23 47 23 110 -1 42 -7 103 -15 136 -26 106 -72 95 400 95 l415 0 5 -22 c38 -178 44 -401 15 -538 -70 -316 -254 -478 -625 -550 -391 -75 -827 39 -1094 286 -157 145 -282 386 -350 674 -48 207 -30 386 59 585 60 133 108 193 410 505 120 124 248 261 286 305 67 77 134 173 134 190 0 5 6 16 13 24 34 42 52 134 52 266 -1 179 -32 281 -114 369 -51 54 -102 76 -184 76 -92 0 -137 -23 -168 -87 -45 -94 -35 -275 37 -636 l6 -27 -403 2 -404 3 -12 55 c-17 73 -58 303 -75 415 -21 146 -17 363 9 466 26 101 43 141 85 212 60 100 163 190 270 236 210 90 534 123 776 80z m-5632 -31 c4 -6 13 -46 20 -87 7 -42 29 -168 50 -281 20 -113 40 -232 45 -265 5 -33 11 -66 14 -73 3 -8 18 -93 35 -190 16 -97 39 -229 50 -292 12 -63 34 -191 50 -285 17 -93 39 -219 49 -280 51 -283 62 -344 71 -400 5 -33 18 -109 30 -170 11 -60 34 -189 50 -285 17 -96 32 -181 35 -187 2 -7 21 -13 41 -13 l36 0 -7 828 c-4 455 -10 1081 -14 1392 -4 311 -4 573 1 583 8 16 35 17 361 17 194 0 358 -4 364 -8 7 -4 80 -210 162 -457 83 -248 295 -880 471 -1405 176 -525 320 -956 320 -957 0 -2 16 -3 35 -3 35 0 35 0 35 44 0 24 -6 74 -14 112 -15 71 -17 86 -66 369 -17 94 -39 220 -49 280 -11 61 -32 178 -46 260 -14 83 -32 184 -40 225 -22 116 -34 182 -65 365 -17 94 -39 222 -50 285 -12 63 -34 192 -50 285 -17 94 -39 220 -49 280 -11 61 -29 158 -39 218 l-19 107 396 -2 396 -3 12 -60 c7 -33 26 -139 43 -235 16 -96 39 -224 50 -285 11 -60 34 -186 50 -280 27 -160 34 -199 61 -342 5 -32 23 -134 39 -228 17 -93 39 -222 50 -285 12 -63 34 -191 50 -285 16 -93 37 -208 45 -255 34 -186 98 -548 106 -605 5 -33 11 -66 14 -73 3 -8 18 -93 35 -190 16 -97 39 -229 50 -292 12 -63 34 -191 50 -285 16 -93 33 -189 38 -212 l10 -43 -648 0 -647 0 -31 83 c-35 93 -188 521 -208 582 -7 22 -27 78 -44 125 -17 47 -40 110 -50 140 -26 74 -106 301 -173 490 -132 374 -189 537 -198 565 -18 61 -31 75 -66 75 l-33 0 0 -1030 0 -1030 -592 -2 c-325 -2 -616 -1 -646 2 -64 6 -60 -2 -87 155 -9 55 -23 132 -30 170 -8 39 -23 126 -34 195 -19 114 -27 162 -61 345 -6 33 -24 137 -40 230 -17 94 -39 220 -49 280 -76 424 -93 517 -102 575 -5 36 -11 72 -14 80 -2 8 -16 83 -30 165 -13 83 -31 186 -39 230 -9 44 -20 107 -26 140 -6 33 -24 137 -40 230 -17 94 -39 220 -50 280 -10 61 -31 178 -44 260 -14 83 -32 184 -40 225 -29 143 -56 295 -62 348 l-7 52 386 0 c285 0 388 -3 393 -12z m3909 -10 c12 -55 36 -184 59 -323 14 -82 35 -199 45 -260 11 -60 32 -177 46 -260 14 -82 32 -184 40 -225 22 -115 43 -233 65 -365 19 -112 34 -197 60 -340 6 -33 24 -136 40 -230 17 -93 39 -219 49 -280 50 -279 62 -344 71 -400 5 -33 18 -107 29 -165 10 -58 33 -184 49 -280 17 -96 36 -202 42 -235 6 -33 16 -85 21 -115 6 -30 23 -131 39 -225 16 -93 32 -185 36 -202 l7 -33 -396 0 -395 0 -7 43 c-3 23 -13 76 -20 117 -26 138 -36 194 -60 340 -14 80 -31 181 -39 225 -9 44 -20 107 -26 140 -6 33 -24 137 -40 230 -17 94 -39 220 -49 280 -77 425 -93 517 -101 575 -6 36 -12 71 -15 78 -3 8 -18 93 -35 190 -16 97 -39 229 -50 292 -12 63 -34 192 -50 285 -17 94 -39 220 -49 280 -11 61 -34 189 -51 285 -16 96 -34 198 -40 225 -5 28 -16 91 -25 140 -9 50 -22 123 -29 163 l-13 72 393 0 394 0 5 -22z m3722 10 c4 -7 18 -74 30 -148 12 -74 29 -171 37 -215 28 -149 37 -200 61 -345 24 -140 31 -179 75 -415 11 -60 29 -167 40 -238 12 -70 23 -133 26 -140 2 -7 11 -53 19 -102 26 -157 44 -259 49 -272 3 -7 21 -13 41 -13 l35 0 0 58 c0 31 6 136 14 232 23 270 46 570 56 730 18 281 41 597 53 735 l12 140 429 3 429 2 -7 -40 c-3 -22 -11 -97 -16 -167 -6 -71 -12 -137 -15 -149 -3 -12 -9 -75 -15 -140 -22 -254 -40 -444 -54 -574 -33 -304 -47 -436 -66 -650 -11 -124 -25 -261 -30 -304 -19 -151 -19 -151 65 -331 20 -44 48 -106 61 -138 14 -32 40 -90 58 -130 18 -40 57 -126 86 -192 54 -122 80 -181 126 -282 15 -31 41 -91 59 -132 29 -67 44 -101 101 -226 65 -142 222 -500 221 -502 -1 -1 -182 -3 -402 -4 l-400 -2 -150 345 c-82 190 -158 363 -167 384 -9 22 -33 77 -53 124 -44 104 -46 107 -89 203 -20 42 -36 80 -36 83 0 5 -29 71 -61 140 -10 22 -19 43 -19 46 0 6 -32 79 -74 173 -8 17 -17 38 -20 48 -4 12 -16 17 -41 17 -35 0 -35 0 -35 -42 0 -24 7 -79 15 -123 30 -162 55 -304 79 -450 14 -82 32 -184 40 -225 24 -122 45 -236 71 -390 13 -80 28 -167 34 -195 5 -27 12 -69 15 -93 l6 -42 -402 2 -401 3 -7 25 c-4 14 -15 70 -25 125 -9 55 -23 132 -30 170 -8 39 -23 129 -35 200 -11 72 -27 164 -35 205 -32 174 -47 253 -71 395 -14 83 -34 197 -44 255 -11 58 -31 173 -45 255 -14 83 -32 184 -40 225 -34 178 -101 561 -116 665 -5 33 -11 66 -14 73 -3 8 -18 93 -35 190 -16 97 -39 229 -50 292 -12 63 -34 192 -50 285 -16 94 -39 220 -50 280 -30 159 -50 277 -50 298 0 16 26 17 399 17 309 0 402 -3 408 -12z m2446 -15 c3 -16 12 -66 21 -113 8 -47 24 -134 35 -195 11 -60 27 -153 36 -205 8 -52 20 -117 25 -145 6 -27 17 -88 25 -135 7 -47 30 -177 51 -290 20 -113 40 -232 45 -265 5 -33 11 -66 14 -73 3 -8 18 -93 35 -190 16 -97 39 -229 50 -292 12 -63 34 -191 50 -285 17 -93 39 -219 49 -280 69 -383 94 -527 102 -580 5 -33 11 -67 14 -75 3 -8 18 -94 35 -190 16 -96 38 -224 49 -285 11 -60 27 -150 36 -200 8 -49 18 -100 20 -112 l5 -23 -395 0 -395 0 -4 23 c-18 90 -40 213 -61 337 -23 140 -33 195 -56 318 -5 31 -23 134 -39 227 -17 94 -39 220 -50 280 -10 61 -31 178 -44 260 -14 83 -32 184 -40 225 -22 111 -34 176 -66 365 -16 94 -34 197 -40 230 -6 33 -16 85 -21 115 -6 30 -23 132 -39 225 -17 94 -39 222 -50 285 -12 63 -34 192 -50 285 -16 94 -39 220 -50 280 -11 61 -33 187 -49 281 -17 94 -33 183 -36 197 l-7 27 395 0 395 0 5 -27z m-12732 -413 c183 -183 318 -347 456 -558 110 -167 113 -173 155 -252 22 -41 51 -93 63 -115 49 -87 284 -628 370 -853 13 -34 31 -77 39 -95 8 -17 25 -61 39 -97 14 -36 45 -117 70 -180 102 -264 130 -338 163 -427 92 -257 225 -523 367 -738 59 -89 178 -251 214 -290 10 -11 54 -60 98 -109 80 -88 218 -214 348 -315 107 -84 289 -201 327 -211 60 -15 276 -39 505 -56 187 -14 349 -15 1085 -11 476 3 989 10 1140 16 151 6 318 12 370 14 93 4 94 3 50 -10 -108 -33 -433 -118 -525 -138 -330 -70 -572 -114 -755 -136 -41 -5 -86 -11 -100 -14 -30 -6 -277 -31 -440 -45 -191 -15 -661 -39 -905 -45 -126 -3 -259 -10 -295 -16 -68 -10 -74 -13 -225 -124 -467 -341 -1062 -506 -1520 -421 -352 65 -625 207 -798 415 -56 68 -137 183 -137 195 0 3 -14 29 -31 57 -17 29 -46 109 -66 178 -19 69 -48 171 -65 226 l-30 100 7 190 c6 152 11 201 27 243 11 29 26 94 33 145 30 201 37 240 79 452 41 207 66 340 101 548 8 48 22 126 30 175 40 235 50 374 49 682 0 318 -10 436 -55 655 -20 101 -73 303 -88 340 -5 11 -26 67 -47 125 -80 222 -243 524 -389 720 -23 30 -45 61 -49 68 -19 32 219 -173 335 -288z m-4156 -585 c205 -15 501 -89 760 -189 416 -162 1033 -530 1527 -911 248 -191 464 -382 713 -628 l210 -207 -135 79 c-185 108 -312 181 -316 181 -2 0 -27 14 -56 31 -77 46 -421 221 -508 258 -41 18 -93 41 -115 51 -57 26 -108 47 -200 82 -44 17 -102 39 -130 50 -89 35 -337 118 -460 154 -321 96 -529 144 -875 203 -516 89 -681 102 -1313 110 l-507 6 51 80 c223 349 504 549 882 630 82 18 284 34 352 29 22 -2 76 -6 120 -9z m-1115 -1325 c267 -12 427 -30 840 -95 180 -28 306 -51 370 -65 25 -6 104 -22 175 -35 72 -14 171 -34 220 -46 50 -11 131 -28 180 -38 76 -16 239 -55 520 -125 33 -8 94 -24 135 -36 41 -11 125 -34 185 -50 61 -16 142 -39 180 -50 39 -12 115 -34 170 -50 208 -59 899 -288 1045 -347 36 -14 101 -39 145 -55 l80 -29 -65 6 c-36 3 -87 10 -115 16 -27 5 -99 16 -160 24 -178 24 -534 73 -615 85 -232 34 -288 41 -420 55 -80 8 -203 19 -275 25 -71 6 -184 16 -250 22 -161 15 -1269 15 -1435 0 -69 -6 -181 -16 -250 -22 -268 -22 -502 -52 -825 -106 -242 -41 -309 -55 -590 -120 -201 -47 -219 -52 -335 -83 -205 -56 -225 -62 -258 -77 -18 -8 -38 -14 -45 -14 -7 0 -73 -20 -147 -45 -74 -26 -141 -47 -149 -48 -38 -5 -70 246 -52 408 12 107 51 248 91 326 61 118 174 238 304 324 207 135 562 228 936 244 96 4 180 9 185 9 6 1 107 -2 225 -8z m2845 -1250 c390 -26 679 -52 785 -70 30 -5 84 -12 120 -15 36 -4 101 -13 145 -21 44 -7 152 -25 240 -39 88 -14 201 -33 250 -43 l90 -18 -280 -8 c-400 -10 -673 -23 -800 -36 -507 -52 -520 -54 -915 -121 -114 -19 -313 -59 -370 -74 -30 -7 -125 -30 -210 -50 -85 -20 -173 -43 -195 -50 -22 -7 -76 -23 -120 -35 -103 -29 -146 -42 -340 -106 -165 -55 -201 -68 -295 -104 -30 -12 -73 -28 -95 -35 -42 -14 -225 -91 -312 -131 -28 -13 -55 -24 -59 -24 -7 0 -156 -71 -326 -156 -109 -54 -342 -179 -388 -209 -19 -12 -87 -53 -150 -90 -179 -108 -506 -331 -653 -448 -23 -18 -98 -78 -167 -132 -430 -340 -890 -790 -1253 -1225 -67 -80 -139 -166 -160 -190 l-38 -45 6 154 c9 201 36 430 65 541 5 19 19 78 31 130 39 172 139 450 224 620 206 416 550 813 970 1117 207 150 419 270 720 408 324 149 908 319 1300 379 50 8 164 25 255 39 233 36 430 55 880 87 153 10 893 11 1045 0z m1440 -827 c-11 -2 -38 -10 -60 -18 -22 -7 -76 -23 -120 -35 -44 -12 -111 -33 -150 -46 -38 -13 -113 -37 -165 -53 -93 -29 -347 -117 -403 -140 -16 -6 -31 -11 -34 -11 -4 0 -43 -14 -87 -31 -279 -108 -363 -141 -381 -149 -11 -5 -81 -34 -155 -65 -74 -31 -158 -68 -187 -81 -28 -13 -55 -24 -58 -24 -4 0 -54 -22 -112 -50 -58 -27 -107 -50 -109 -50 -12 0 -376 -179 -521 -256 -543 -289 -1004 -595 -1383 -920 -676 -578 -1158 -1227 -1456 -1959 -19 -44 -35 -73 -38 -65 -13 36 -66 231 -80 295 -70 312 -69 647 4 930 39 153 78 257 163 435 48 100 137 242 224 355 87 114 271 305 392 408 46 40 95 82 110 95 47 41 274 196 376 258 189 114 286 165 560 289 342 155 923 339 1690 535 22 5 121 28 220 50 99 22 207 47 240 55 112 26 587 118 700 135 95 14 305 48 385 62 158 28 519 70 435 51z m34 -417 c-2 -2 -69 -43 -149 -91 -194 -116 -506 -320 -655 -427 -185 -133 -384 -282 -450 -338 -23 -19 -80 -66 -126 -104 -460 -378 -911 -870 -1251 -1366 -76 -111 -233 -361 -251 -400 -4 -8 -26 -46 -48 -85 -52 -92 -167 -316 -194 -380 -12 -27 -36 -79 -52 -115 -111 -233 -281 -721 -378 -1085 -15 -55 -33 -120 -41 -145 -14 -46 -69 -262 -84 -335 -5 -22 -14 -53 -20 -70 l-12 -30 -27 55 c-14 30 -35 75 -45 100 -11 25 -28 65 -38 90 -57 136 -131 370 -159 504 -11 55 -22 102 -24 105 -12 20 -38 309 -38 421 0 125 22 338 43 420 5 19 17 69 26 110 33 148 91 312 170 478 30 62 54 114 54 116 0 9 107 186 149 246 162 235 276 370 479 568 230 224 489 431 782 624 171 112 266 173 302 193 9 6 64 37 120 69 332 190 755 404 1098 556 102 45 194 85 205 90 72 33 591 228 609 229 5 1 7 -1 5 -3z"></path><path id="pdpoMjmPS" d="M13143 14010 c6 -55 27 -154 62 -290 8 -30 30 -125 50 -210 20 -85 42 -180 50 -210 8 -30 30 -122 49 -205 55 -234 198 -835 228 -957 l12 -48 68 0 68 0 0 43 c0 49 -19 225 -65 602 -9 66 -24 206 -35 310 -11 105 -27 244 -35 310 -33 276 -45 378 -60 520 -9 83 -18 160 -21 173 -4 22 -6 22 -191 22 l-186 0 6 -60z"></path></g></g><g id="l5FfmaaNBZMvE0ZoEK84WJM" fill="rgb(255,222,0)" style="transform: none;"><g style="transform: none;"><path id="pHkrnkgVh" d="M15400 15424 c-14 -2 -72 -11 -130 -20 -191 -29 -253 -48 -373 -117 -85 -48 -155 -119 -207 -207 -22 -38 -40 -72 -40 -75 0 -4 -6 -21 -14 -38 -47 -102 -65 -400 -37 -602 26 -194 84 -475 100 -484 5 -3 201 -5 436 -3 l426 2 -6 48 c-3 26 -12 79 -20 117 -52 264 -59 437 -19 505 56 97 195 98 290 1 64 -65 114 -209 114 -331 0 -142 -43 -258 -148 -394 -47 -61 -259 -289 -418 -450 -234 -237 -313 -353 -379 -553 -31 -94 -44 -301 -26 -425 22 -158 97 -382 171 -516 52 -92 90 -142 175 -227 160 -160 321 -241 615 -309 148 -35 437 -30 601 9 206 49 298 94 400 195 145 143 199 298 199 574 0 131 -21 364 -35 386 -4 6 -171 10 -446 10 -396 0 -440 -2 -446 -16 -3 -9 1 -60 11 -113 32 -184 16 -239 -79 -274 -43 -16 -57 -17 -101 -7 -69 15 -137 60 -170 112 -23 36 -28 55 -28 113 -1 113 36 178 198 340 72 72 194 189 271 260 371 343 479 502 534 788 32 166 27 272 -24 552 -45 244 -148 513 -260 680 -104 153 -252 283 -403 351 -42 20 -84 39 -92 44 -14 7 -68 19 -260 60 -56 12 -334 22 -380 14z"></path><path id="pcLJtMWlY" d="M10050 15373 c0 -5 5 -28 11 -52 5 -23 21 -109 34 -190 25 -148 44 -255 70 -391 8 -41 26 -142 40 -225 14 -82 35 -199 46 -260 11 -60 24 -135 29 -165 9 -59 39 -227 71 -405 10 -60 32 -186 49 -280 32 -191 44 -257 66 -365 8 -41 26 -142 40 -225 13 -82 34 -199 44 -260 11 -60 33 -186 50 -280 16 -93 38 -222 50 -285 11 -63 33 -191 50 -285 37 -217 51 -294 56 -323 l4 -22 888 2 c592 2 886 6 885 13 -1 6 -15 93 -33 195 -17 102 -40 235 -51 295 -11 61 -24 139 -30 175 -5 36 -14 75 -19 87 l-9 23 -438 2 -438 3 -22 125 c-12 69 -31 177 -43 240 -24 132 -40 229 -40 248 0 9 90 12 415 12 228 0 415 2 415 5 0 17 -76 450 -106 605 -7 41 -17 95 -22 120 l-8 45 -419 5 -420 5 -8 50 c-4 28 -14 86 -22 130 -8 44 -24 134 -35 200 -23 139 -45 259 -66 365 -8 41 -26 143 -40 225 -13 83 -34 200 -44 260 -11 61 -34 187 -50 280 -16 94 -35 200 -41 238 l-12 67 -448 0 c-247 0 -449 -3 -449 -7z"></path><path id="p6wN1IvGw" d="M11950 15375 c0 -5 57 -205 84 -295 33 -112 48 -163 82 -280 20 -69 56 -195 81 -280 54 -186 66 -227 87 -303 9 -32 32 -113 52 -180 20 -67 49 -169 66 -227 38 -132 43 -152 113 -390 31 -107 69 -240 85 -296 15 -55 33 -116 39 -135 6 -19 27 -88 45 -154 19 -66 46 -160 61 -210 15 -49 39 -135 55 -190 15 -55 55 -194 89 -310 80 -273 84 -288 127 -435 19 -69 49 -169 65 -224 16 -54 29 -100 29 -102 0 -2 313 -4 695 -4 l695 0 0 26 c0 25 -4 87 -35 549 -36 540 -45 665 -50 755 -21 328 -54 828 -80 1200 -8 113 -24 354 -35 535 -11 182 -24 389 -30 460 -9 110 -29 443 -30 483 0 9 -93 12 -430 12 -408 0 -430 -1 -430 -18 0 -18 25 -409 34 -524 l4 -58 -218 0 -218 0 -10 28 c-6 15 -38 124 -72 242 -34 118 -65 226 -70 240 -5 14 -12 40 -15 58 l-7 32 -429 0 c-236 0 -429 -2 -429 -5z m1534 -1357 c3 -13 12 -90 21 -173 15 -142 27 -244 60 -520 8 -66 24 -205 35 -310 11 -104 26 -244 35 -310 32 -265 65 -552 65 -572 0 -8 -14 -13 -38 -13 -37 0 -39 1 -50 48 -30 122 -173 723 -228 957 -19 83 -41 175 -49 205 -8 30 -30 125 -50 210 -20 85 -42 180 -50 210 -13 49 -49 210 -61 268 l-4 22 155 0 c152 0 155 0 159 -22z"></path><path id="pQN2bRuCY" d="M17280 15370 c0 -10 40 -240 76 -435 8 -44 28 -156 44 -250 16 -93 38 -219 49 -280 10 -60 31 -177 45 -260 14 -82 32 -186 40 -230 9 -44 20 -107 26 -140 6 -33 24 -136 40 -230 31 -182 42 -246 65 -365 8 -41 26 -142 40 -225 14 -82 35 -199 46 -260 10 -60 31 -177 44 -260 14 -82 32 -181 40 -218 9 -37 13 -72 10 -78 -4 -5 -114 -9 -267 -9 -219 0 -259 -2 -255 -14 3 -8 11 -43 17 -77 6 -35 17 -100 26 -144 8 -44 25 -145 39 -225 13 -80 31 -181 39 -225 9 -44 15 -81 16 -82 0 -2 437 -3 971 -3 l970 0 -6 48 c-4 26 -14 81 -22 122 -8 41 -19 98 -23 125 -21 134 -81 469 -84 473 -3 2 -119 3 -260 3 -236 -2 -256 -1 -264 16 -6 10 -20 77 -31 148 -19 117 -36 213 -71 400 -6 33 -24 137 -40 230 -16 94 -39 220 -50 280 -12 61 -25 137 -30 170 -9 56 -20 117 -71 400 -10 61 -33 189 -50 285 -16 96 -36 209 -43 250 -8 41 -28 156 -45 255 -36 206 -56 318 -77 425 -14 73 -64 371 -64 384 0 3 -200 6 -445 6 -296 0 -445 -3 -445 -10z"></path><path id="p8vx9T5el" d="M6925 15275 c-162 -23 -370 -83 -411 -119 -28 -23 -57 -104 -136 -371 -103 -350 -226 -822 -278 -1070 -16 -77 -38 -183 -50 -235 -12 -52 -35 -171 -51 -265 -17 -93 -39 -219 -50 -280 -10 -60 -30 -186 -43 -280 -23 -160 -35 -255 -71 -540 -14 -115 -42 -455 -65 -785 -13 -200 -13 -572 1 -770 20 -289 62 -620 78 -620 4 0 15 93 25 208 34 407 51 534 126 927 27 143 35 177 75 340 117 472 278 931 479 1360 98 210 316 635 436 851 33 59 60 109 60 112 0 2 32 57 70 123 39 66 70 122 70 125 0 2 28 50 63 107 35 57 67 110 70 118 4 8 16 28 27 44 11 17 27 44 36 60 9 17 36 59 59 95 174 269 178 277 215 422 25 97 25 163 0 231 -38 102 -116 165 -251 203 -77 22 -356 27 -484 9z"></path><path id="p5b4pvUZA" d="M8390 14631 c-63 -9 -175 -43 -219 -66 -40 -20 -94 -85 -200 -240 -49 -71 -104 -150 -121 -175 -153 -219 -412 -651 -587 -980 -80 -150 -283 -562 -283 -575 0 -2 -20 -47 -45 -99 -25 -53 -45 -99 -45 -102 0 -3 -7 -22 -16 -42 -24 -54 -48 -111 -69 -162 -10 -25 -27 -64 -37 -87 -10 -23 -18 -48 -18 -55 0 -8 -4 -18 -9 -23 -8 -9 -24 -50 -87 -230 -8 -22 -19 -49 -24 -60 -11 -25 -97 -283 -143 -430 -64 -205 -77 -250 -98 -330 -12 -44 -30 -111 -41 -150 -10 -38 -30 -117 -44 -175 -24 -100 -31 -131 -69 -279 -15 -62 -15 -78 2 -68 9 6 2 -7 171 332 193 388 351 683 452 845 5 8 35 58 66 110 183 302 451 684 694 990 270 340 493 585 840 924 387 377 453 445 490 499 22 31 40 60 40 63 0 2 11 22 24 43 13 21 31 62 40 91 74 249 -120 423 -484 435 -69 2 -150 0 -180 -4z"></path><path id="pe8R6yuv4" d="M8955 13097 c-84 -22 -129 -51 -375 -236 -225 -170 -412 -332 -610 -531 -211 -210 -281 -284 -350 -370 -25 -30 -47 -57 -50 -60 -23 -22 -152 -188 -225 -289 -133 -184 -239 -352 -374 -591 -44 -78 -204 -402 -236 -479 -27 -65 -27 -99 -1 -84 8 4 50 55 92 113 461 625 991 1083 1579 1365 196 94 205 98 345 148 132 48 224 76 330 102 36 9 88 22 115 30 28 7 73 16 100 20 60 8 179 61 243 109 27 19 62 60 82 92 34 56 35 62 35 159 0 81 -4 112 -24 165 -63 168 -181 278 -344 321 -93 25 -265 33 -332 16z"></path><path id="p14W1PAXzB" d="M16339 10240 c-245 -38 -390 -101 -500 -217 -80 -84 -125 -171 -162 -312 -19 -73 -22 -113 -22 -261 0 -96 6 -215 13 -265 17 -112 58 -342 75 -415 l12 -55 438 -3 437 -2 -5 27 c-72 420 -76 452 -72 518 6 94 37 159 88 185 126 65 268 -37 325 -235 36 -120 18 -334 -33 -396 -7 -8 -13 -19 -13 -24 0 -17 -67 -113 -134 -190 -38 -44 -166 -181 -286 -305 -120 -124 -236 -247 -259 -273 -211 -247 -286 -560 -210 -877 121 -506 371 -795 800 -925 204 -62 494 -76 704 -35 373 73 556 234 625 550 31 144 24 416 -15 598 l-5 22 -445 0 -445 0 0 -47 c0 -27 7 -75 15 -108 30 -127 11 -199 -65 -237 -86 -44 -227 2 -287 93 -24 37 -28 52 -28 118 0 139 56 217 351 491 244 225 398 381 461 465 43 57 74 112 136 239 31 65 64 214 73 331 9 117 -21 339 -73 540 -117 457 -310 739 -610 893 -232 118 -567 161 -884 112z"></path><path id="pREyZ6sfT" d="M10390 10203 c0 -29 42 -270 76 -443 8 -41 26 -142 40 -225 13 -82 34 -199 44 -260 11 -60 33 -186 50 -280 16 -93 34 -197 40 -230 6 -33 17 -96 26 -140 8 -44 26 -147 39 -230 14 -82 28 -157 30 -165 3 -8 9 -44 14 -80 9 -58 26 -151 102 -575 10 -60 32 -186 49 -280 16 -93 34 -197 40 -230 6 -33 17 -96 26 -140 8 -44 25 -145 39 -225 23 -139 28 -170 60 -340 7 -41 16 -92 20 -112 3 -21 14 -41 23 -46 9 -5 64 -8 122 -7 58 1 356 2 663 3 l557 2 0 1032 c0 883 2 1030 14 1013 7 -11 18 -36 24 -55 9 -32 56 -164 199 -570 67 -189 147 -416 173 -490 10 -30 33 -93 50 -140 17 -47 37 -103 44 -125 20 -61 173 -489 208 -582 17 -46 36 -83 42 -83 112 -4 1341 2 1345 5 3 3 -1 36 -7 73 -7 37 -26 144 -42 237 -16 94 -38 222 -50 285 -11 63 -34 195 -50 292 -17 97 -32 182 -35 190 -3 7 -9 40 -14 73 -8 57 -72 419 -106 605 -8 47 -29 162 -45 255 -16 94 -38 222 -50 285 -11 63 -33 192 -50 285 -16 94 -34 196 -39 228 -27 143 -34 182 -61 342 -16 94 -39 220 -50 280 -11 61 -34 189 -50 285 -17 96 -36 202 -43 235 l-12 60 -427 3 -428 2 0 -22 c0 -21 11 -85 61 -363 10 -60 32 -186 49 -280 16 -93 38 -222 50 -285 11 -63 33 -191 50 -285 31 -183 43 -249 65 -365 8 -41 26 -142 40 -225 14 -82 35 -199 46 -260 10 -60 32 -186 49 -280 49 -283 51 -298 66 -369 15 -73 18 -103 8 -94 -5 5 -402 1185 -795 2363 -82 247 -155 453 -162 457 -6 4 -184 8 -394 8 -377 0 -382 0 -393 -21 -8 -14 -10 -64 -6 -152 3 -73 8 -411 11 -752 3 -341 8 -908 11 -1260 4 -442 3 -637 -4 -630 -6 6 -24 91 -41 190 -17 99 -40 230 -51 290 -12 61 -25 137 -30 170 -9 56 -20 117 -71 400 -10 61 -32 187 -49 280 -16 94 -38 222 -50 285 -11 63 -34 195 -50 292 -17 97 -32 182 -35 190 -3 7 -9 40 -14 73 -5 33 -25 152 -45 265 -21 113 -43 239 -50 281 -7 41 -16 81 -20 87 -5 9 -116 12 -427 12 -392 0 -419 -1 -419 -17z"></path><path id="p5RmGJZIG" d="M14290 10201 c0 -21 37 -247 45 -271 2 -8 9 -44 14 -80 9 -58 26 -151 102 -575 10 -60 32 -186 49 -280 16 -93 38 -222 50 -285 11 -63 34 -195 50 -292 17 -97 32 -182 35 -190 3 -7 9 -42 15 -78 8 -58 24 -150 101 -575 10 -60 32 -186 49 -280 16 -93 34 -197 40 -230 6 -33 17 -96 26 -140 8 -44 25 -145 39 -225 24 -146 34 -202 60 -340 7 -41 17 -94 20 -117 4 -24 12 -43 18 -43 138 -3 842 2 845 5 3 3 -2 42 -12 87 -9 46 -27 148 -41 228 -23 138 -30 178 -55 315 -6 33 -25 139 -42 235 -16 96 -39 222 -49 280 -11 58 -24 132 -29 165 -9 56 -21 121 -71 400 -10 61 -32 187 -49 280 -16 94 -34 197 -40 230 -26 143 -41 228 -60 340 -22 132 -43 250 -65 365 -8 41 -26 143 -40 225 -14 83 -35 200 -46 260 -10 61 -31 178 -45 260 -23 139 -47 268 -59 323 l-5 22 -425 0 c-411 0 -425 -1 -425 -19z"></path><path id="pyQx9mCr" d="M17990 10203 c0 -21 31 -206 60 -358 11 -60 34 -186 50 -280 16 -93 38 -222 50 -285 11 -63 34 -195 50 -292 17 -97 32 -182 35 -190 3 -7 9 -40 14 -73 15 -104 82 -487 116 -665 8 -41 26 -142 40 -225 14 -82 34 -197 45 -255 10 -58 30 -172 44 -255 25 -144 41 -232 71 -395 8 -41 26 -146 40 -232 14 -87 28 -163 30 -170 3 -7 9 -42 15 -78 19 -129 40 -234 49 -243 9 -9 859 -12 868 -3 4 4 -2 43 -32 211 -8 44 -24 134 -35 200 -23 139 -45 259 -66 365 -8 41 -26 143 -40 225 -13 83 -33 197 -44 255 -10 58 -26 147 -35 198 -9 52 -14 96 -11 99 3 3 8 -3 12 -13 3 -10 12 -32 20 -49 42 -94 74 -167 74 -173 0 -3 9 -24 19 -46 32 -69 61 -135 61 -140 0 -3 16 -41 36 -83 43 -96 45 -99 89 -203 20 -47 44 -102 53 -124 9 -21 85 -194 167 -385 l151 -346 434 2 c239 1 440 2 447 2 9 1 -94 242 -241 566 -8 17 -26 57 -41 90 -15 33 -42 94 -60 136 -18 41 -44 101 -59 132 -46 101 -72 160 -126 282 -29 66 -68 152 -86 192 -18 40 -44 98 -58 130 -13 32 -41 94 -61 138 -81 174 -78 160 -66 265 6 52 20 192 31 310 19 212 37 384 66 650 8 74 21 212 30 305 42 458 54 583 69 700 7 55 10 106 7 113 -3 10 -101 12 -461 10 l-456 -3 -12 -140 c-12 -138 -35 -454 -53 -735 -10 -160 -33 -460 -56 -730 -8 -96 -14 -202 -14 -234 0 -38 -4 -56 -9 -50 -9 8 -25 88 -57 283 -7 47 -16 91 -18 98 -3 7 -14 70 -26 140 -11 71 -29 178 -40 238 -44 236 -51 275 -75 415 -24 145 -33 196 -61 345 -8 44 -25 141 -37 215 -12 74 -26 141 -30 148 -6 9 -106 12 -443 12 -407 0 -434 -1 -434 -17z"></path><path id="pB3cujsid" d="M20457 10206 c-3 -7 -1 -31 4 -52 4 -22 22 -118 39 -214 16 -96 39 -224 50 -285 11 -60 34 -186 50 -280 16 -93 38 -222 50 -285 11 -63 33 -191 50 -285 16 -93 34 -197 40 -230 25 -137 32 -178 60 -340 32 -189 44 -254 66 -365 8 -41 26 -142 40 -225 13 -82 34 -199 44 -260 11 -60 33 -186 50 -280 16 -93 34 -196 39 -227 27 -144 34 -183 61 -343 46 -263 58 -326 63 -331 5 -6 846 -8 852 -3 2 3 -7 67 -21 144 -14 77 -34 190 -45 250 -11 61 -33 189 -49 285 -17 96 -32 182 -35 190 -3 8 -9 42 -14 75 -8 53 -33 197 -102 580 -10 61 -32 187 -49 280 -16 94 -38 222 -50 285 -11 63 -34 195 -50 292 -17 97 -32 182 -35 190 -3 7 -9 40 -14 73 -5 33 -25 152 -45 265 -21 113 -44 243 -51 290 -8 47 -19 108 -25 135 -5 28 -17 93 -25 145 -9 52 -25 145 -36 205 -11 61 -27 148 -35 195 -9 47 -18 97 -21 113 l-5 27 -423 0 c-350 0 -424 -2 -428 -14z"></path><path id="p12Ouro2r6" d="M8080 10158 c0 -13 13 -36 28 -53 28 -30 144 -186 194 -260 121 -180 257 -445 322 -625 21 -58 42 -114 47 -125 15 -37 68 -239 88 -340 43 -212 54 -339 55 -625 1 -277 -10 -423 -49 -652 -8 -49 -22 -127 -30 -175 -35 -208 -60 -341 -101 -548 -42 -212 -49 -251 -79 -452 -7 -51 -23 -117 -34 -147 -16 -45 -21 -89 -27 -272 l-7 -219 31 -100 c17 -55 46 -157 65 -226 20 -69 49 -149 66 -178 17 -28 31 -54 31 -57 0 -12 81 -127 137 -195 173 -208 443 -349 798 -415 129 -25 389 -29 529 -10 369 52 741 204 1051 431 151 111 157 114 225 124 36 6 169 13 295 16 244 6 714 30 905 45 163 14 410 39 440 45 14 3 59 9 100 14 146 18 297 43 495 83 289 58 305 62 475 107 85 22 166 43 180 47 14 3 76 22 138 40 93 29 112 38 112 54 0 24 34 24 -475 4 -214 -8 -768 -18 -1230 -21 -715 -4 -873 -3 -1060 11 -229 17 -445 41 -505 56 -38 10 -220 127 -327 211 -130 101 -268 227 -348 315 -44 49 -88 98 -98 109 -36 39 -155 201 -214 290 -142 215 -275 481 -367 738 -33 89 -61 163 -163 427 -25 63 -56 144 -70 180 -14 36 -31 80 -39 97 -8 18 -26 61 -39 95 -86 225 -321 766 -370 853 -12 22 -41 74 -63 115 -42 79 -45 85 -155 252 -95 145 -121 180 -232 314 -172 207 -397 419 -634 596 -71 53 -91 59 -91 26z"></path><path id="pCVpfHEv8" d="M4088 9200 c-389 -25 -735 -203 -963 -495 -82 -104 -175 -252 -175 -277 0 -10 6 -21 13 -23 6 -2 239 -6 517 -8 623 -5 776 -18 1300 -108 346 -59 554 -107 875 -203 123 -36 371 -119 460 -154 28 -11 86 -33 130 -50 92 -35 143 -56 200 -82 22 -10 74 -33 115 -51 87 -37 431 -212 508 -258 29 -17 54 -31 56 -31 5 0 168 -94 408 -237 125 -74 233 -133 239 -131 17 6 -76 108 -331 360 -388 385 -691 635 -1133 934 -763 517 -1356 767 -1932 814 -70 5 -137 9 -149 9 -12 -1 -74 -5 -138 -9z"></path><path id="pzig1YD1Z" d="M2840 7869 c-96 -4 -230 -17 -297 -28 -650 -108 -975 -378 -1034 -861 -19 -160 7 -440 45 -478 15 -16 10 -17 216 53 74 25 140 45 147 45 7 0 27 6 45 14 33 15 53 21 258 77 116 31 134 36 335 83 281 65 348 79 590 120 323 54 557 84 825 106 69 6 181 16 250 22 165 15 1215 15 1375 0 66 -6 179 -16 250 -22 181 -14 402 -38 520 -55 55 -8 147 -21 205 -30 58 -8 175 -24 260 -35 145 -19 196 -27 455 -65 121 -18 387 -53 432 -57 51 -4 40 14 -24 37 -32 12 -80 31 -108 42 -212 90 -1007 360 -1300 443 -55 16 -131 38 -170 50 -38 11 -119 34 -180 50 -60 16 -144 39 -185 50 -41 12 -102 28 -135 36 -281 70 -444 109 -520 125 -49 10 -130 27 -180 38 -49 12 -148 32 -220 46 -71 13 -150 29 -175 35 -141 32 -604 104 -865 135 -124 15 -516 37 -600 33 -22 0 -119 -5 -215 -9z"></path><path id="p1FW16mpS7" d="M5050 6620 c-450 -32 -647 -51 -880 -87 -91 -14 -205 -31 -255 -39 -392 -60 -976 -230 -1300 -379 -496 -228 -810 -439 -1135 -765 -236 -236 -421 -489 -555 -760 -85 -170 -185 -448 -224 -620 -12 -52 -26 -111 -31 -130 -12 -45 -39 -213 -50 -315 -13 -116 -24 -407 -16 -438 11 -45 37 -31 106 55 389 492 914 1019 1400 1403 69 54 144 114 167 132 147 117 474 340 653 448 63 37 131 78 150 90 46 30 279 155 388 209 170 85 319 156 326 156 4 0 31 11 59 24 87 40 270 117 312 131 22 7 65 23 95 35 162 63 467 164 635 210 44 12 98 28 120 35 22 7 110 30 195 50 85 20 180 43 210 50 57 15 256 55 370 74 395 67 408 69 915 121 160 17 496 30 849 35 188 2 312 7 319 14 5 5 7 16 4 24 -6 16 -173 52 -432 92 -82 13 -190 31 -240 39 -49 9 -117 18 -150 21 -33 3 -85 10 -115 15 -107 18 -397 44 -785 70 -152 11 -952 10 -1105 0z"></path><path id="pkknAlGwi" d="M7655 5819 c-27 -5 -156 -22 -285 -39 -129 -17 -242 -32 -250 -35 -8 -2 -60 -11 -115 -19 -267 -41 -374 -59 -545 -92 -260 -50 -376 -73 -445 -89 -33 -8 -141 -33 -240 -55 -99 -22 -198 -45 -220 -50 -767 -196 -1348 -380 -1690 -535 -274 -124 -371 -175 -560 -289 -102 -62 -329 -217 -376 -258 -15 -13 -64 -55 -110 -95 -121 -103 -305 -294 -392 -408 -87 -113 -176 -255 -224 -355 -85 -178 -124 -282 -163 -435 -42 -162 -55 -280 -54 -500 0 -265 30 -455 113 -729 45 -149 54 -150 106 -14 139 363 401 818 668 1158 535 681 1235 1241 2180 1744 145 77 509 256 521 256 2 0 51 23 109 50 58 28 108 50 112 50 3 0 30 11 58 24 29 13 113 50 187 81 74 31 144 60 155 65 18 8 102 41 381 149 44 17 83 31 87 31 3 0 18 5 34 11 54 22 309 110 398 139 50 15 119 38 155 50 36 12 103 32 150 45 120 34 189 55 235 71 22 7 65 19 95 25 67 14 90 25 90 44 0 17 -79 19 -165 4z"></path><path id="phXqj3aL8" d="M7670 5416 c-282 -97 -607 -218 -715 -266 -11 -5 -103 -45 -205 -90 -343 -152 -766 -366 -1098 -556 -56 -32 -111 -63 -120 -69 -36 -20 -131 -81 -302 -193 -293 -193 -552 -400 -782 -624 -203 -198 -317 -333 -479 -568 -42 -60 -149 -237 -149 -246 0 -2 -24 -54 -54 -116 -79 -166 -137 -330 -170 -478 -9 -41 -21 -91 -26 -110 -44 -171 -56 -518 -26 -755 10 -77 20 -143 21 -146 2 -3 13 -50 24 -105 34 -165 117 -416 191 -579 10 -22 32 -73 50 -113 53 -116 74 -118 104 -10 10 35 24 86 31 113 8 28 23 93 35 145 12 52 28 113 35 135 7 22 25 85 40 140 96 360 267 852 378 1085 16 36 40 88 52 115 27 64 142 288 194 380 22 39 44 77 48 85 18 39 175 289 251 400 340 496 791 988 1251 1366 46 38 103 85 126 104 66 56 265 205 450 338 225 162 703 464 979 618 66 37 93 64 64 64 -7 0 -96 -29 -198 -64z"></path></g></g></svg>