<svg width="1846" height="1980" xmlns="http://www.w3.org/2000/svg" xmlns:xlink="http://www.w3.org/1999/xlink" xml:space="preserve" overflow="hidden"><defs><clipPath id="clip0"><rect x="280" y="49" width="1846" height="1980"/></clipPath></defs><g clip-path="url(#clip0)" transform="translate(-280 -49)"><path d="M1116.59 2027.55C1095.23 2024.51 1067.8 2016.57 1062.39 2011.81 1058.7 2008.77 1054.87 1998.06 1044.45 1962.75 1030.87 1916.46 1014.65 1854.04 1007.79 1821.24 1005.68 1811.06 1002.78 1797.04 1001.2 1790.16 999.614 1783.29 996.581 1767.55 994.471 1755.12 992.229 1742.82 989.327 1726.15 987.877 1718.09 986.558 1710.15 983.92 1693.49 982.206 1681.06 979.172 1659.9 977.59 1647.33 972.842 1609.64 970.996 1594.43 967.303 1549.47 964.27 1505.83 962.555 1479.38 962.555 1430.18 964.401 1403.99 967.039 1365.77 972.578 1322 974.688 1322 975.216 1322 976.667 1334.3 977.985 1349.51 982.469 1403.33 984.711 1420.13 994.602 1472.1 998.164 1491.02 999.219 1495.51 1004.49 1517.07 1019.92 1579.49 1041.16 1640.19 1067.67 1696.93 1080.59 1724.7 1109.34 1780.91 1125.17 1809.47 1129.52 1817.27 1133.08 1823.89 1133.08 1824.28 1133.08 1824.55 1137.3 1831.82 1142.31 1840.55 1147.45 1849.28 1151.54 1856.69 1151.54 1857.08 1151.54 1857.35 1155.24 1863.69 1159.85 1871.23 1164.47 1878.77 1168.69 1885.78 1169.08 1886.84 1169.61 1887.9 1171.19 1890.54 1172.64 1892.66 1174.09 1894.91 1176.2 1898.48 1177.39 1900.59 1178.58 1902.84 1182.14 1908.39 1185.17 1913.16 1208.12 1948.73 1208.65 1949.79 1213.53 1968.96 1216.82 1981.79 1216.82 1990.52 1213.53 1999.51 1208.52 2013 1198.23 2021.34 1180.42 2026.36 1170.27 2029.27 1133.47 2029.93 1116.59 2027.55Z" fill="#FFDE00" fill-rule="evenodd"/><path d="M1310.2 1942.37C1301.88 1941.18 1287.08 1936.68 1281.27 1933.65 1275.98 1931 1268.85 1922.41 1254.84 1901.93 1248.36 1892.54 1241.1 1882.1 1238.85 1878.8 1218.63 1849.85 1184.41 1792.76 1161.29 1749.28 1150.72 1729.45 1123.89 1675 1123.89 1673.28 1123.89 1673.02 1121.25 1667.07 1117.95 1660.2 1114.65 1653.19 1112 1647.11 1112 1646.72 1112 1646.32 1111.08 1643.81 1109.89 1641.17 1106.72 1634.03 1103.55 1626.5 1100.77 1619.76 1099.45 1616.45 1097.2 1611.3 1095.88 1608.26 1094.56 1605.22 1093.5 1601.91 1093.5 1600.99 1093.5 1599.93 1092.98 1598.61 1092.31 1597.95 1091.26 1596.76 1089.14 1591.34 1080.82 1567.55 1079.76 1564.64 1078.31 1561.08 1077.65 1559.62 1076.19 1556.32 1064.83 1522.22 1058.75 1502.79 1050.3 1475.7 1048.58 1469.75 1045.8 1459.18 1044.22 1453.36 1041.84 1444.51 1040.39 1439.35 1039.06 1434.33 1036.42 1423.89 1034.57 1416.22 1031.4 1403.01 1030.48 1398.91 1025.45 1379.35 1023.47 1371.16 1023.47 1369.04 1025.72 1370.36 1026.91 1371.16 1025.98 1369.44 1048.31 1414.24 1073.82 1465.52 1094.69 1504.51 1108.04 1525.92 1108.7 1526.98 1112.66 1533.59 1116.76 1540.46 1140.94 1580.37 1176.35 1630.86 1208.46 1671.3 1244.14 1716.24 1273.6 1748.62 1319.45 1793.42 1370.59 1843.25 1379.31 1852.23 1384.2 1859.37 1387.1 1863.47 1389.48 1867.3 1389.48 1867.7 1389.48 1867.96 1390.94 1870.6 1392.65 1873.38 1394.37 1876.15 1396.75 1881.57 1397.94 1885.41 1407.72 1918.31 1382.08 1941.31 1333.99 1942.9 1324.87 1943.16 1314.17 1942.9 1310.2 1942.37Z" fill="#FFDE00" fill-rule="evenodd"/><path d="M1384.63 1739.81C1373.55 1736.9 1367.61 1733.06 1335.15 1708.58 1305.46 1686.08 1280.78 1664.65 1254.65 1638.31 1226.81 1610.52 1217.57 1600.73 1208.47 1589.35 1205.17 1585.38 1202.27 1581.81 1201.87 1581.41 1198.84 1578.5 1181.81 1556.54 1172.18 1543.17 1154.63 1518.82 1140.64 1496.59 1122.83 1464.96 1117.02 1454.64 1095.91 1411.77 1091.69 1401.58 1088.13 1392.98 1088.13 1388.48 1091.56 1390.46 1092.61 1390.99 1098.15 1397.74 1103.7 1405.42 1164.53 1488.12 1234.47 1548.73 1312.06 1586.04 1337.92 1598.48 1339.11 1599.01 1357.58 1605.63 1375 1611.98 1387.14 1615.69 1401.13 1619.13 1405.88 1620.32 1412.74 1622.04 1416.3 1623.1 1420 1624.02 1425.93 1625.21 1429.5 1625.74 1437.41 1626.8 1453.12 1633.81 1461.56 1640.17 1465.12 1642.68 1469.74 1648.11 1472.38 1652.34 1476.87 1659.75 1477 1660.54 1477 1673.38 1477 1684.1 1476.47 1688.2 1473.83 1695.21 1465.52 1717.44 1449.95 1732 1428.44 1737.69 1416.17 1741 1393.47 1742.06 1384.63 1739.81Z" fill="#FFDE00" fill-rule="evenodd"/><path d="M1269 1351.3C1269 1349.58 1270.72 1346.54 1272.7 1344.29 1276.41 1340.32 1291.75 1319.68 1298.36 1309.89 1314.36 1286.08 1332.34 1251.01 1340.94 1227.2 1343.72 1219.52 1346.49 1212.11 1347.16 1210.66 1349.14 1205.76 1356.15 1179.04 1358.79 1165.67 1364.48 1137.62 1365.93 1120.82 1366.07 1082.98 1366.2 1046.33 1364.74 1027.01 1359.59 996.713 1358.53 990.23 1356.68 979.91 1355.62 973.559 1350.99 946.039 1347.68 928.442 1342.26 901.053 1336.71 873.004 1335.78 867.843 1331.82 841.249 1330.89 834.501 1328.77 825.769 1327.32 821.8 1325.2 815.846 1324.54 810.024 1323.75 785.811L1322.82 756.835 1326.92 743.604C1329.17 736.327 1333.01 722.832 1335.52 713.702 1338.16 704.573 1342 693.988 1344.25 690.151 1346.49 686.446 1348.35 683.006 1348.35 682.609 1348.35 681.021 1359.06 665.806 1366.46 656.809 1389.34 629.288 1425.05 610.633 1471.99 601.9 1489.05 598.592 1523.44 598.063 1541.95 600.577 1590.75 607.457 1639.94 627.568 1680.94 657.603 1700.91 672.289 1701.7 672.686 1710.69 674.009 1715.45 674.803 1733.04 675.729 1749.71 676.126 1781.97 676.92 1844.13 680.095 1869.39 682.08 1890.94 683.932 1923.61 687.24 1927.57 688.034 1929.42 688.431 1935.38 689.225 1940.8 689.886 1960.1 692.268 1980.07 695.576 2006.26 700.868 2044.48 708.542 2046.59 709.071 2069.07 715.025 2080.31 717.936 2091.03 720.715 2092.88 721.244 2094.73 721.641 2102.93 724.154 2111.13 726.536 2123.43 730.373 2125.94 731.564 2125.94 733.681 2125.94 736.857 2130.43 736.857 2063.12 734.21 2034.82 733.152 1961.56 731.828 1900.46 731.432 1805.91 730.903 1785.01 731.035 1760.28 732.887 1730 735.136 1701.44 738.312 1693.5 740.296 1688.48 741.619 1664.41 757.1 1650.26 768.214 1633.07 781.577 1614.82 798.248 1604.24 809.892 1598.42 816.375 1592.6 822.858 1591.28 824.313 1586.52 829.474 1570.78 850.908 1562.98 862.683 1544.2 891.13 1526.61 926.325 1514.44 960.328 1510.08 972.104 1506.38 981.895 1492.89 1016.82 1489.58 1025.16 1485.48 1035.88 1483.63 1040.64 1481.78 1045.4 1479.53 1051.23 1478.47 1053.47 1477.42 1055.86 1475.04 1061.55 1473.32 1066.04 1461.94 1095.81 1430.87 1167.39 1424.39 1178.9 1422.8 1181.82 1418.96 1188.7 1416.05 1194.12 1410.5 1204.57 1410.1 1205.37 1395.56 1227.46 1382.99 1246.65 1379.56 1251.28 1364.88 1269.01 1342.13 1296.4 1312.38 1324.45 1281.03 1347.86 1271.65 1354.88 1269 1355.67 1269 1351.3Z" fill="#FFDE00" fill-rule="evenodd"/><path d="M741.539 1224.81C690.081 1221.5 644.31 1197.96 614.15 1159.34 603.302 1145.59 591 1126.01 591 1122.71 591 1121.38 591.794 1119.93 592.72 1119.66 593.513 1119.4 624.336 1118.87 661.111 1118.61 743.524 1117.94 763.763 1116.22 833.08 1104.32 878.851 1096.52 906.366 1090.17 948.829 1077.47 965.1 1072.71 997.906 1061.73 1009.68 1057.1 1013.38 1055.65 1021.06 1052.74 1026.88 1050.49 1039.05 1045.86 1045.79 1043.09 1053.33 1039.65 1056.24 1038.32 1063.12 1035.28 1068.55 1032.9 1080.06 1028.01 1125.56 1004.86 1135.75 998.778 1139.58 996.53 1142.89 994.678 1143.15 994.678 1143.82 994.678 1165.38 982.246 1197.13 963.333 1213.66 953.545 1227.95 945.742 1228.74 946.006 1230.99 946.8 1218.69 960.291 1184.96 993.62 1133.63 1044.54 1093.55 1077.6 1035.08 1117.15 934.146 1185.53 855.701 1218.59 779.505 1224.81 770.245 1225.47 761.382 1226 759.795 1226 758.207 1225.87 750.005 1225.34 741.539 1224.81Z" fill="#FFDE00" fill-rule="evenodd"/><path d="M576.632 1048.75C563.953 1048.22 546.255 1046.5 537.406 1045.05 451.558 1030.78 408.634 995.119 400.841 931.319 398.332 910.184 401.766 873.199 406.785 868.179 408.766 866.066 408.106 865.933 435.313 875.18 445.086 878.482 453.803 881.124 454.728 881.124 455.652 881.124 458.294 881.917 460.671 882.973 465.029 884.955 467.671 885.747 494.746 893.144 510.067 897.239 512.444 897.9 538.991 904.108 576.104 912.694 584.953 914.543 616.915 919.959 659.575 927.092 690.48 931.055 725.876 933.961 734.989 934.753 749.782 936.074 758.895 936.867 780.687 938.848 919.365 938.848 940.497 936.867 949.214 936.074 964.138 934.753 973.515 933.961 997.421 932.111 1026.61 928.941 1042.19 926.696 1049.46 925.639 1061.61 923.922 1069.27 922.733 1076.93 921.676 1092.38 919.563 1103.61 918.11 1122.76 915.6 1129.49 914.543 1163.7 909.524 1179.68 907.146 1214.81 902.523 1220.76 901.995 1227.49 901.466 1226.04 903.844 1217.59 906.882 1213.36 908.467 1207.02 910.977 1203.32 912.43 1175.32 924.318 1070.33 959.983 1031.63 970.946 1024.36 973.06 1014.33 975.966 1009.18 977.551 1004.16 979.004 993.459 982.042 985.402 984.156 977.478 986.269 966.383 989.307 960.968 990.76 955.553 992.345 947.497 994.459 943.138 995.515 906.025 1004.76 884.497 1009.91 874.46 1012.03 867.988 1013.35 857.29 1015.59 850.686 1017.05 844.214 1018.63 831.139 1021.27 821.63 1023.12 812.253 1024.84 801.819 1026.95 798.517 1027.75 779.895 1031.97 718.744 1041.48 684.273 1045.58 667.896 1047.56 616.122 1050.47 605.028 1049.94 602.123 1049.94 589.311 1049.28 576.632 1048.75Z" fill="#FFDE00" fill-rule="evenodd"/><path d="M868.71 882.96C809.16 878.733 783.091 876.224 752.257 871.468 740.215 869.619 725.129 867.374 718.512 866.317 666.638 858.392 589.356 835.938 546.48 816.258 480.843 786.143 439.291 758.273 396.282 715.214 365.052 684.043 340.571 650.626 322.838 614.831 311.59 592.377 298.356 555.658 293.196 532.939 291.607 526.071 289.755 518.279 289.093 515.769 287.505 509.825 283.932 487.635 282.476 474.163 280.756 458.841 279.301 420.405 280.359 416.31 281.815 410.366 285.255 412.216 294.386 423.575 345.864 488.56 415.338 558.167 479.652 608.887 488.783 616.02 498.708 623.945 501.751 626.322 521.204 641.776 564.477 671.23 588.165 685.495 596.502 690.383 605.5 695.798 608.015 697.383 614.102 701.345 644.935 717.856 659.359 724.988 681.856 736.215 701.574 745.593 702.5 745.593 703.029 745.593 706.602 747.046 710.308 748.763 721.82 754.047 746.037 764.217 751.595 766.066 754.507 766.991 760.197 769.104 764.167 770.689 785.605 779.01 825.966 792.351 848.198 798.427 854.021 800.011 861.167 802.125 864.078 803.049 866.989 803.974 878.634 807.012 889.883 809.654 901.131 812.295 913.703 815.333 917.673 816.258 925.216 818.239 951.55 823.522 966.636 826.032 1018.91 834.882 1020.63 835.146 1087.72 842.014 1108.89 844.26 1153.36 845.977 1200.07 846.637 1224.95 846.901 1241.36 847.561 1242.28 848.486 1242.95 849.147 1243.21 850.599 1242.81 851.656 1242.02 853.77 1219.92 858.524 1185.65 863.807 1174.8 865.525 1160.5 867.902 1153.89 868.959 1147.4 870.148 1138.4 871.336 1134.04 871.733 1129.67 872.129 1122.79 873.054 1118.82 873.714 1104.66 876.092 1066.28 879.526 1014.94 882.96 994.823 884.413 888.957 884.281 868.71 882.96Z" fill="#FFDE00" fill-rule="evenodd"/><path d="M1213.17 777.664C1209.59 777.003 1192.52 774.755 1175.45 772.508 1158.38 770.26 1143.43 768.277 1142.37 767.88 1141.31 767.616 1134.43 766.426 1127.15 765.368 1091.82 759.948 1077.66 757.568 1055.04 753.205 1020.63 746.594 1005.28 743.554 996.151 741.438 991.784 740.381 977.493 737.075 964.392 734.167 951.292 731.258 938.192 728.217 935.281 727.556 833.786 701.642 756.904 677.316 711.649 656.823 675.391 640.428 662.555 633.686 637.546 618.613 624.048 610.417 594.01 589.924 587.791 584.503 585.806 582.784 579.322 577.231 573.235 571.943 557.224 558.325 532.876 533.073 521.363 518.001 509.851 503.061 498.073 484.287 491.722 471.065 480.474 447.532 475.313 433.782 470.153 413.553 464.595 392.135 462.875 376.534 463.007 347.448 463.007 312.412 466.977 287.292 477.96 251.065 483.915 231.366 485.105 231.234 491.987 249.215 510.38 297.207 545.049 357.364 580.381 402.316 651.175 492.352 743.804 566.39 868.852 632.892 888.04 643.073 936.207 666.738 937.795 666.738 938.06 666.738 944.543 669.779 952.218 673.349 959.893 677.051 966.51 679.96 967.039 679.96 967.436 679.96 971.009 681.414 974.714 683.133 978.551 684.852 989.667 689.743 999.459 693.842 1009.25 697.94 1018.51 701.774 1019.97 702.436 1022.35 703.493 1033.47 707.856 1070.39 722.135 1076.21 724.383 1081.37 726.234 1081.9 726.234 1082.3 726.234 1084.28 726.895 1086.4 727.688 1093.54 730.597 1127.29 742.231 1139.06 746.066 1145.68 748.048 1154.81 751.089 1159.57 752.676 1164.34 754.263 1173.2 756.907 1179.42 758.626 1195.3 763.121 1204.43 765.897 1210.52 768.012 1213.43 768.938 1219.12 770.525 1223.09 771.318 1231.96 773.169 1235 774.623 1235 777.135 1235 779.383 1224.55 779.647 1213.17 777.664Z" fill="#FFDE00" fill-rule="evenodd"/><path d="M1215.26 724.528C1177.94 711.688 1134.93 695.67 1120.63 689.316 1119.18 688.654 1107 683.359 1093.5 677.402 1048.11 657.281 992.123 628.952 948.183 603.8 940.771 599.564 933.492 595.46 932.301 594.666 927.536 592.019 914.963 583.944 892.332 569.117 853.553 543.568 819.275 516.166 788.835 486.514 761.968 460.303 746.88 442.432 725.44 411.324 719.881 403.381 705.72 379.951 705.72 378.759 705.72 378.494 702.543 371.611 698.573 363.403 688.117 341.429 680.441 319.719 676.073 300.127 674.882 294.7 673.294 288.081 672.633 285.566 666.809 262.929 665.221 216.995 669.192 185.621 670.515 175.428 671.838 166.691 671.971 166.294 672.235 165.897 673.691 159.675 675.147 152.395 679.647 130.552 690.632 97.3258 700.426 75.7482 701.749 72.836 704.661 66.0849 707.043 60.7898 714.058 45.434 716.837 45.1692 720.807 59.466 722.131 64.0991 723.984 70.8502 724.91 74.4247 725.969 78.1311 727.954 86.7357 729.543 93.6191 731.131 100.503 733.248 108.578 734.175 111.49 735.101 114.402 737.483 122.742 739.469 130.023 752.174 177.679 774.806 242.808 789.497 273.652 791.614 278.417 794.791 285.301 796.379 288.875 799.952 297.347 815.172 327 822.054 339.178 824.966 344.341 827.878 349.371 828.407 350.43 830.789 355.593 851.568 388.687 861.627 403.381 906.625 469.04 966.315 534.17 1027.2 584.208 1033.28 589.239 1040.83 595.46 1043.87 597.976 1052.61 605.389 1078.94 625.113 1103.43 642.719 1133.21 664.164 1196.47 704.142 1233 724.528 1241.73 729.426 1245.31 733 1241.47 733 1240.54 733 1228.76 729.161 1215.26 724.528Z" fill="#FFDE00" fill-rule="evenodd"/></g></svg>